<svg width="135.7926025390625px" height="62px" xmlns="http://www.w3.org/2000/svg" viewBox="182.10369873046875 44 135.7926025390625 62" style="background: rgba(0, 0, 0, 0);" preserveAspectRatio="xMidYMid"><defs><linearGradient id="editing-gradient-gradient" x1="0" x2="1" y1="0.5" y2="0.5" gradientUnits="objectBoundingBox"><stop offset="0" stop-color="#f0f"></stop><stop offset="1" stop-color="#0ff"></stop></linearGradient></defs><g><g transform="translate(195.70501112937927, 87.7450008392334)"><path d="M14.83-8.39L5.32-8.39L5.32-8.39Q4.74-8.39 4.23-8.62L4.23-8.62L4.23-8.62Q3.72-8.85 3.34-9.22L3.34-9.22L3.34-9.22Q2.95-9.60 2.73-10.11L2.73-10.11L2.73-10.11Q2.52-10.62 2.52-11.20L2.52-11.20L2.52-16.80L2.52-16.80Q2.52-17.38 2.73-17.89L2.73-17.89L2.73-17.89Q2.95-18.40 3.34-18.78L3.34-18.78L3.34-18.78Q3.72-19.15 4.23-19.38L4.23-19.38L4.23-19.38Q4.74-19.61 5.32-19.61L5.32-19.61L14.83-19.61L14.83-19.61Q15.41-19.61 15.92-19.38L15.92-19.38L15.92-19.38Q16.43-19.15 16.82-18.78L16.82-18.78L16.82-18.78Q17.20-18.40 17.42-17.89L17.42-17.89L17.42-17.89Q17.64-17.38 17.64-16.80L17.64-16.80L17.64-14.27L14.83-14.27L14.83-16.80L5.32-16.80L5.32-11.20L14.83-11.20L14.83-11.20Q15.41-11.20 15.92-10.98L15.92-10.98L15.92-10.98Q16.43-10.76 16.82-10.38L16.82-10.38L16.82-10.38Q17.20-9.99 17.42-9.48L17.42-9.48L17.42-9.48Q17.64-8.97 17.64-8.39L17.64-8.39L17.64-2.80L17.64-2.80Q17.64-2.23 17.42-1.72L17.42-1.72L17.42-1.72Q17.20-1.20 16.82-0.82L16.82-0.82L16.82-0.82Q16.43-0.44 15.92-0.22L15.92-0.22L15.92-0.22Q15.41 0 14.83 0L14.83 0L5.04 0L5.04 0Q4.47 0 3.96-0.22L3.96-0.22L3.96-0.22Q3.45-0.44 3.06-0.82L3.06-0.82L3.06-0.82Q2.68-1.20 2.46-1.72L2.46-1.72L2.46-1.72Q2.24-2.23 2.24-2.80L2.24-2.80L2.24-5.32L5.04-5.32L5.04-2.80L14.83-2.80L14.83-8.39ZM22.41-2.69L22.41-6.36L22.41-6.36Q22.41-6.92 22.62-7.40L22.62-7.40L22.62-7.40Q22.83-7.89 23.19-8.26L23.19-8.26L23.19-8.26Q23.56-8.63 24.05-8.84L24.05-8.84L24.05-8.84Q24.54-9.05 25.09-9.05L25.09-9.05L32.03-9.05L32.03-11.87L23.24-11.87L23.24-14.56L32.03-14.56L32.03-14.56Q32.59-14.56 33.09-14.35L33.09-14.35L33.09-14.35Q33.58-14.14 33.94-13.77L33.94-13.77L33.94-13.77Q34.30-13.41 34.51-12.92L34.51-12.92L34.51-12.92Q34.73-12.43 34.73-11.87L34.73-11.87L34.73 0L32.03 0L32.03-2.46L32.03-2.46Q31.99-1.96 31.76-1.50L31.76-1.50L31.76-1.50Q31.53-1.05 31.17-0.72L31.17-0.72L31.17-0.72Q30.80-0.38 30.34-0.19L30.34-0.19L30.34-0.19Q29.87 0 29.35 0L29.35 0L25.09 0L25.09 0Q24.54 0 24.05-0.21L24.05-0.21L24.05-0.21Q23.56-0.42 23.19-0.79L23.19-0.79L23.19-0.79Q22.83-1.15 22.62-1.64L22.62-1.64L22.62-1.64Q22.41-2.13 22.41-2.69L22.41-2.69ZM25.09-6.36L25.09-2.69L32.03-2.69L32.03-6.36L25.09-6.36ZM38.36-11.87L38.36-14.56L41.92-14.56L41.92-19.04L44.61-19.04L44.61-14.56L49.40-14.56L49.40-11.87L44.61-11.87L44.61-2.69L49.40-2.69L49.40 0L44.61 0L44.61 0Q44.06 0 43.57-0.21L43.57-0.21L43.57-0.21Q43.08-0.42 42.71-0.79L42.71-0.79L42.71-0.79Q42.34-1.15 42.13-1.64L42.13-1.64L42.13-1.64Q41.92-2.13 41.92-2.69L41.92-2.69L41.92-11.87L38.36-11.87ZM57.54 5.88L54.87 5.88L57.91-1.31L52.20-14.56L55.03-14.56L59.28-4.54L63.53-14.56L66.36-14.56L57.54 5.88ZM69.17-2.69L69.17-6.36L69.17-6.36Q69.17-6.92 69.38-7.40L69.38-7.40L69.38-7.40Q69.59-7.89 69.95-8.26L69.95-8.26L69.95-8.26Q70.31-8.63 70.81-8.84L70.81-8.84L70.81-8.84Q71.30-9.05 71.85-9.05L71.85-9.05L78.79-9.05L78.79-11.87L70-11.87L70-14.56L78.79-14.56L78.79-14.56Q79.35-14.56 79.84-14.35L79.84-14.35L79.84-14.35Q80.34-14.14 80.70-13.77L80.70-13.77L80.70-13.77Q81.06-13.41 81.27-12.92L81.27-12.92L81.27-12.92Q81.48-12.43 81.48-11.87L81.48-11.87L81.48 0L78.79 0L78.79-2.46L78.79-2.46Q78.75-1.96 78.52-1.50L78.52-1.50L78.52-1.50Q78.29-1.05 77.92-0.72L77.92-0.72L77.92-0.72Q77.56-0.38 77.10-0.19L77.10-0.19L77.10-0.19Q76.63 0 76.11 0L76.11 0L71.85 0L71.85 0Q71.30 0 70.81-0.21L70.81-0.21L70.81-0.21Q70.31-0.42 69.95-0.79L69.95-0.79L69.95-0.79Q69.59-1.15 69.38-1.64L69.38-1.64L69.38-1.64Q69.17-2.13 69.17-2.69L69.17-2.69ZM71.85-6.36L71.85-2.69L78.79-2.69L78.79-6.36L71.85-6.36ZM103.66-11.87L97.51-11.87L97.51 0L94.81 0L94.81-11.87L88.65-11.87L88.65 0L85.97 0L85.97-14.56L88.65-14.56L88.65-11.99L88.65-11.99Q88.68-12.52 88.89-13.00L88.89-13.00L88.89-13.00Q89.11-13.47 89.48-13.82L89.48-13.82L89.48-13.82Q89.84-14.16 90.32-14.36L90.32-14.36L90.32-14.36Q90.79-14.56 91.34-14.56L91.34-14.56L94.81-14.56L94.81-14.56Q95.35-14.56 95.83-14.36L95.83-14.36L95.83-14.36Q96.30-14.16 96.67-13.82L96.67-13.82L96.67-13.82Q97.04-13.47 97.27-13.00L97.27-13.00L97.27-13.00Q97.49-12.52 97.51-11.99L97.51-11.99L97.51-11.99Q97.54-12.52 97.75-13.00L97.75-13.00L97.75-13.00Q97.96-13.47 98.32-13.82L98.32-13.82L98.32-13.82Q98.68-14.16 99.16-14.36L99.16-14.36L99.16-14.36Q99.64-14.56 100.19-14.56L100.19-14.56L103.66-14.56L103.66-14.56Q104.22-14.56 104.71-14.35L104.71-14.35L104.71-14.35Q105.21-14.14 105.57-13.77L105.57-13.77L105.57-13.77Q105.93-13.41 106.14-12.92L106.14-12.92L106.14-12.92Q106.35-12.43 106.35-11.87L106.35-11.87L106.35 0L103.66 0L103.66-11.87Z" fill="url(#editing-gradient-gradient)"></path></g></g><style>text {
 font-size: 64px;
 font-family: Arial Black;
 dominant-baseline: central;
 text-anchor: middle;
}</style></svg>
